999
dxfrw 0.6.3
  0
SECTION
  2
HEADER
  9
$ACADVER
  1
AC1021
  9
$DWGCODEPAGE
  3
ANSI_1252
  9
$INSBASE
 10
0
 20
0
 30
0
  9
$EXTMIN
 10
1e+20
 20
1e+20
 30
1e+20
  9
$EXTMAX
 10
-1e+20
 20
-1e+20
 30
-1e+20
  9
$LIMMIN
 10
0
 20
0
  9
$LIMMAX
 10
420
 20
297
  9
$ORTHOMODE
 70
    0
  9
$REGENMODE
 70
    1
  9
$FILLMODE
 70
    1
  9
$QTEXTMODE
 70
    0
  9
$MIRRTEXT
 70
    0
  9
$LTSCALE
 40
1
  9
$ATTMODE
 70
    0
  9
$TEXTSIZE
 40
2.5
  9
$TRACEWID
 40
15.68
  9
$TEXTSTYLE
  7
STANDARD
  9
$CLAYER
  8
0
  9
$CELTYPE
  6
BYLAYER
  9
$CECOLOR
 62
  256
  9
$CELTSCALE
 40
1
  9
$DISPSILH
 70
    0
  9
$DIMSCALE
 40
1
  9
$DIMASZ
 40
2.5
  9
$DIMEXO
 40
0.625
  9
$DIMDLI
 40
3.75
  9
$DIMRND
 40
0
  9
$DIMDLE
 40
0
  9
$DIMEXE
 40
1.25
  9
$DIMTP
 40
0
  9
$DIMTM
 40
0
  9
$DIMTXT
 40
2.5
  9
$DIMCEN
 40
2.5
  9
$DIMTSZ
 40
0
  9
$DIMTOL
 70
    0
  9
$DIMLIM
 70
    0
  9
$DIMTIH
 70
    0
  9
$DIMTOH
 70
    0
  9
$DIMSE1
 70
    0
  9
$DIMSE2
 70
    0
  9
$DIMTAD
 70
    1
  9
$DIMZIN
 70
    8
  9
$DIMBLK
  1

  9
$DIMASO
 70
    1
  9
$DIMSHO
 70
    1
  9
$DIMPOST
  1

  9
$DIMAPOST
  1

  9
$DIMALT
 70
    0
  9
$DIMALTD
 70
    3
  9
$DIMALTF
 40
0.03937
  9
$DIMLFAC
 40
1
  9
$DIMTOFL
 70
    1
  9
$DIMTVP
 40
0
  9
$DIMTIX
 70
    0
  9
$DIMSOXD
 70
    0
  9
$DIMSAH
 70
    0
  9
$DIMBLK1
  1

  9
$DIMBLK2
  1

  9
$DIMSTYLE
  2
STANDARD
  9
$DIMCLRD
 70
    0
  9
$DIMCLRE
 70
    0
  9
$DIMCLRT
 70
    0
  9
$DIMTFAC
 40
1
  9
$DIMGAP
 40
0.625
  9
$DIMJUST
 70
    0
  9
$DIMSD1
 70
    0
  9
$DIMSD2
 70
    0
  9
$DIMTOLJ
 70
    0
  9
$DIMTZIN
 70
    8
  9
$DIMALTZ
 70
    0
  9
$DIMALTTZ
 70
    0
  9
$DIMUPT
 70
    0
  9
$DIMDEC
 70
    2
  9
$DIMTDEC
 70
    2
  9
$DIMALTU
 70
    2
  9
$DIMALTTD
 70
    3
  9
$DIMTXSTY
  7
STANDARD
  9
$DIMAUNIT
 70
    0
  9
$DIMADEC
 70
    0
  9
$DIMALTRND
 40
0
  9
$DIMAZIN
 70
    0
  9
$DIMDSEP
 70
   44
  9
$DIMATFIT
 70
    3
  9
$DIMFRAC
 70
    0
  9
$DIMLDRBLK
  1
STANDARD
  9
$DIMLUNIT
 70
    2
  9
$DIMLWD
 70
   -2
  9
$DIMLWE
 70
   -2
  9
$DIMTMOVE
 70
    0
  9
$DIMFXL
 40
1
  9
$DIMFXLON
 70
    0
  9
$DIMJOGANG
 40
0.7854
  9
$DIMTFILL
 70
    0
  9
$DIMTFILLCLR
 70
    0
  9
$DIMARCSYM
 70
    0
  9
$DIMLTYPE
  6

  9
$DIMLTEX1
  6

  9
$DIMLTEX2
  6

  9
$LUNITS
 70
    2
  9
$LUPREC
 70
    4
  9
$SKETCHINC
 40
1
  9
$FILLETRAD
 40
0
  9
$AUNITS
 70
    0
  9
$AUPREC
 70
    2
  9
$MENU
  1
.
  9
$ELEVATION
 40
0
  9
$PELEVATION
 40
0
  9
$THICKNESS
 40
0
  9
$LIMCHECK
 70
    0
  9
$CHAMFERA
 40
0
  9
$CHAMFERB
 40
0
  9
$CHAMFERC
 40
0
  9
$CHAMFERD
 40
0
  9
$SKPOLY
 70
    0
  9
$USRTIMER
 70
    1
  9
$ANGBASE
 50
0
  9
$ANGDIR
 70
    0
  9
$PDMODE
 70
   34
  9
$PDSIZE
 40
0
  9
$PLINEWID
 40
0
  9
$SPLFRAME
 70
    0
  9
$SPLINETYPE
 70
    2
  9
$SPLINESEGS
 70
    8
  9
$HANDSEED
  5
20000
  9
$SURFTAB1
 70
    6
  9
$SURFTAB2
 70
    6
  9
$SURFTYPE
 70
    6
  9
$SURFU
 70
    6
  9
$SURFV
 70
    6
  9
$UCSBASE
  2

  9
$UCSNAME
  2

  9
$UCSORG
 10
0
 20
0
 30
0
  9
$UCSXDIR
 10
1
 20
0
 30
0
  9
$UCSYDIR
 10
0
 20
1
 30
0
  9
$UCSORTHOREF
  2

  9
$UCSORTHOVIEW
 70
    0
  9
$UCSORGTOP
 10
0
 20
0
 30
0
  9
$UCSORGBOTTOM
 10
0
 20
0
 30
0
  9
$UCSORGLEFT
 10
0
 20
0
 30
0
  9
$UCSORGRIGHT
 10
0
 20
0
 30
0
  9
$UCSORGFRONT
 10
0
 20
0
 30
0
  9
$UCSORGBACK
 10
0
 20
0
 30
0
  9
$PUCSBASE
  2

  9
$PUCSNAME
  2

  9
$PUCSORG
 10
0
 20
0
 30
0
  9
$PUCSXDIR
 10
1
 20
0
 30
0
  9
$PUCSYDIR
 10
0
 20
1
 30
0
  9
$PUCSORTHOREF
  2

  9
$PUCSORTHOVIEW
 70
    0
  9
$PUCSORGTOP
 10
0
 20
0
 30
0
  9
$PUCSORGBOTTOM
 10
0
 20
0
 30
0
  9
$PUCSORGLEFT
 10
0
 20
0
 30
0
  9
$PUCSORGRIGHT
 10
0
 20
0
 30
0
  9
$PUCSORGFRONT
 10
0
 20
0
 30
0
  9
$PUCSORGBACK
 10
0
 20
0
 30
0
  9
$USERI1
 70
    0
  9
$USERI2
 70
    0
  9
$USERI3
 70
    0
  9
$USERI4
 70
    0
  9
$USERI5
 70
    0
  9
$USERR1
 40
0
  9
$USERR2
 40
0
  9
$USERR3
 40
0
  9
$USERR4
 40
0
  9
$USERR5
 40
0
  9
$WORLDVIEW
 70
    1
  9
$SHADEDGE
 70
    3
  9
$SHADEDIF
 70
   70
  9
$TILEMODE
 70
    1
  9
$MAXACTVP
 70
   64
  9
$PINSBASE
 10
0
 20
0
 30
0
  9
$PLIMCHECK
 70
    0
  9
$PEXTMIN
 10
0
 20
0
 30
0
  9
$PEXTMAX
 10
0
 20
0
 30
0
  9
$PLIMMIN
 10
0
 20
0
  9
$PLIMMAX
 10
297
 20
210
  9
$UNITMODE
 70
    0
  9
$VISRETAIN
 70
    1
  9
$PLINEGEN
 70
    0
  9
$PSLTSCALE
 70
    1
  9
$TREEDEPTH
 70
 3020
  9
$CMLSTYLE
  2
Standard
  9
$CMLJUST
 70
    0
  9
$CMLSCALE
 40
20
  9
$PROXYGRAPHICS
 70
    1
  9
$MEASUREMENT
 70
    1
  9
$CELWEIGHT
370
   -1
  9
$ENDCAPS
280
    0
  9
$JOINSTYLE
280
    0
  9
$LWDISPLAY
290
    0
  9
$INSUNITS
 70
    0
  9
$HYPERLINKBASE
  1

  9
$STYLESHEET
  1

  9
$XEDIT
290
    1
  9
$CEPSNTYPE
380
    0
  9
$PSTYLEMODE
290
    1
  9
$EXTNAMES
290
    1
  9
$PSVPSCALE
 40
0
  9
$OLESTARTUP
290
    0
  9
$SORTENTS
280
  127
  9
$INDEXCTL
280
    0
  9
$HIDETEXT
280
    1
  9
$XCLIPFRAME
290
    0
  9
$HALOGAP
280
    0
  9
$OBSCOLOR
 70
  257
  9
$OBSLTYPE
280
    0
  9
$INTERSECTIONDISPLAY
280
    0
  9
$INTERSECTIONCOLOR
 70
  257
  9
$DIMASSOC
280
    1
  9
$PROJECTNAME
  1

  9
$CAMERADISPLAY
290
    0
  9
$LENSLENGTH
 40
50
  9
$CAMERAHEIGHT
 40
0
  9
$STEPSPERSEC
 40
2
  9
$STEPSIZE
 40
50
  9
$3DDWFPREC
 40
2
  9
$PSOLWIDTH
 40
5
  9
$PSOLHEIGHT
 40
80
  9
$LOFTANG1
 40
1.570796326794897
  9
$LOFTANG2
 40
1.570796326794897
  9
$LOFTMAG1
 40
0
  9
$LOFTMAG2
 40
0
  9
$LOFTPARAM
 70
    7
  9
$LOFTNORMALS
280
    1
  9
$LATITUDE
 40
1
  9
$LONGITUDE
 40
1
  9
$NORTHDIRECTION
 40
0
  9
$TIMEZONE
 70
-8000
  9
$LIGHTGLYPHDISPLAY
280
    1
  9
$TILEMODELIGHTSYNCH
280
    1
  9
$SOLIDHIST
280
    1
  9
$SHOWHIST
280
    1
  9
$DWFFRAME
280
    2
  9
$DGNFRAME
280
    0
  9
$REALWORLDSCALE
290
    1
  9
$INTERFERECOLOR
 62
    1
  9
$CSHADOW
280
    0
  9
$SHADOWPLANELOCATION
 40
0
  0
ENDSEC
  0
SECTION
  2
CLASSES
  0
ENDSEC
  0
SECTION
  2
TABLES
  0
TABLE
  2
VPORT
  5
8
330
0
100
AcDbSymbolTable
 70
    1
  0
VPORT
  5
31
330
2
100
AcDbSymbolTableRecord
100
AcDbViewportTableRecord
  2
*ACTIVE
 70
    0
 10
0
 20
0
 11
1
 21
1
 12
0.651828
 22
-0.16
 13
0
 23
0
 14
10
 24
10
 15
10
 25
10
 16
0
 26
0
 36
1
 17
0
 27
0
 37
0
 40
5.13732
 41
2.4426877
 42
50
 43
0
 44
0
 50
0
 51
0
 71
    0
 72
  100
 73
    1
 74
    3
 75
    0
 76
    0
 77
    0
 78
    0
281
    0
 65
    1
110
0
120
0
130
0
111
1
121
0
131
0
112
0
122
1
132
0
 79
    0
146
0
348
10020
 60
    7
 61
    5
292
1
282
    1
141
0
142
0
 63
  250
421
3358443
  0
ENDTAB
  0
TABLE
  2
LTYPE
  5
5
330
0
100
AcDbSymbolTable
 70
    4
  0
LTYPE
  5
14
330
5
100
AcDbSymbolTableRecord
100
AcDbLinetypeTableRecord
  2
ByBlock
 70
    0
  3

 72
   65
 73
    0
 40
0
  0
LTYPE
  5
15
330
5
100
AcDbSymbolTableRecord
100
AcDbLinetypeTableRecord
  2
ByLayer
 70
    0
  3

 72
   65
 73
    0
 40
0
  0
LTYPE
  5
16
330
5
100
AcDbSymbolTableRecord
100
AcDbLinetypeTableRecord
  2
Continuous
 70
    0
  3
Solid line
 72
   65
 73
    0
 40
0
  0
LTYPE
  5
32
330
5
100
AcDbSymbolTableRecord
100
AcDbLinetypeTableRecord
  2
DASHED
 70
    0
  3

 72
   65
 73
    2
 40
3
 49
1
 74
    0
 49
-2
 74
    0
  0
LTYPE
  5
33
330
5
100
AcDbSymbolTableRecord
100
AcDbLinetypeTableRecord
  2
DASHED
 70
    0
  3

 72
   65
 73
    2
 40
2
 49
1
 74
    0
 49
-1
 74
    0
  0
LTYPE
  5
34
330
5
100
AcDbSymbolTableRecord
100
AcDbLinetypeTableRecord
  2
DASHEDX2
 70
    0
  3

 72
   65
 73
    2
 40
3
 49
2
 74
    0
 49
-1
 74
    0
  0
LTYPE
  5
35
330
5
100
AcDbSymbolTableRecord
100
AcDbLinetypeTableRecord
  2
DASHDOT
 70
    0
  3

 72
   65
 73
    4
 40
3
 49
1
 74
    0
 49
-1
 74
    0
 49
0
 74
    0
 49
-1
 74
    0
  0
LTYPE
  5
36
330
5
100
AcDbSymbolTableRecord
100
AcDbLinetypeTableRecord
  2
DIVIDE
 70
    0
  3

 72
   65
 73
    6
 40
4
 49
1
 74
    0
 49
-1
 74
    0
 49
0
 74
    0
 49
-1
 74
    0
 49
0
 74
    0
 49
-1
 74
    0
  0
LTYPE
  5
37
330
5
100
AcDbSymbolTableRecord
100
AcDbLinetypeTableRecord
  2
DOT
 70
    0
  3

 72
   65
 73
    2
 40
1
 49
1
 74
    0
 49
0
 74
    0
  0
ENDTAB
  0
TABLE
  2
LAYER
  5
2
330
0
100
AcDbSymbolTable
 70
    1
  0
LAYER
  5
38
330
2
100
AcDbSymbolTableRecord
100
AcDbLayerTableRecord
  2
dimensions
 70
    0
 62
    7
  6
CONTINUOUS
370
   -3
390
F
  0
LAYER
  5
39
330
2
100
AcDbSymbolTableRecord
100
AcDbLayerTableRecord
  2
text
 70
    0
 62
    7
  6
CONTINUOUS
370
   -3
390
F
  0
LAYER
  5
3A
330
2
100
AcDbSymbolTableRecord
100
AcDbLayerTableRecord
  2
s001-#def-active-grp
 70
    0
 62
    7
  6
CONTINUOUS
370
   -3
390
F
  0
LAYER
  5
10
330
2
100
AcDbSymbolTableRecord
100
AcDbLayerTableRecord
  2
0
 70
    0
 62
    7
  6
CONTINUOUS
370
   -3
390
F
  0
ENDTAB
  0
TABLE
  2
STYLE
  5
3
330
0
100
AcDbSymbolTable
 70
    3
  0
STYLE
  5
3B
330
2
100
AcDbSymbolTableRecord
100
AcDbTextStyleTableRecord
  2
unicode
 70
    0
 40
0
 41
1
 50
0
 71
    0
 42
1
  3
unicode
  4

  0
STYLE
  5
3C
330
2
100
AcDbSymbolTableRecord
100
AcDbTextStyleTableRecord
  2
Standard
 70
    0
 40
0
 41
1
 50
0
 71
    0
 42
1
  3
txt
  4

  0
ENDTAB
  0
TABLE
  2
VIEW
  5
6
330
0
100
AcDbSymbolTable
 70
    0
  0
ENDTAB
  0
TABLE
  2
UCS
  5
7
330
0
100
AcDbSymbolTable
 70
    0
  0
ENDTAB
  0
TABLE
  2
APPID
  5
9
330
0
100
AcDbSymbolTable
 70
    1
  0
APPID
  5
12
330
9
100
AcDbSymbolTableRecord
100
AcDbRegAppTableRecord
  2
ACAD
 70
    0
  0
ENDTAB
  0
TABLE
  2
DIMSTYLE
  5
A
330
0
100
AcDbSymbolTable
 70
    1
100
AcDbDimStyleTable
 71
    1
  0
DIMSTYLE
105
3D
330
A
100
AcDbSymbolTableRecord
100
AcDbDimStyleTableRecord
  2
Standard
 70
    0
 40
1
 41
2.5
 42
0.625
 43
3.75
 44
1.25
 45
0
 46
0
 47
0
 48
0
140
2.5
141
2.5
142
0
143
0.03937007874015748
144
1
145
0
146
1
147
0.625
148
0
 71
    0
 72
    0
 73
    0
 74
    0
 75
    0
 76
    0
 77
    1
 78
    8
 79
    0
170
    0
171
    3
172
    1
173
    0
174
    0
175
    0
176
    0
177
    0
178
    0
179
    0
271
    2
272
    2
273
    2
274
    3
275
    0
276
    0
277
    2
278
   44
279
    0
280
    0
281
    0
282
    0
283
    0
284
    8
285
    0
286
    0
288
    0
289
    3
341

371
   -2
372
   -2
  0
ENDTAB
  0
TABLE
  2
BLOCK_RECORD
  5
1
330
0
100
AcDbSymbolTable
 70
    2
  0
BLOCK_RECORD
  5
1F
330
1
100
AcDbSymbolTableRecord
100
AcDbBlockTableRecord
  2
*Model_Space
 70
    0
280
    1
281
    0
  0
BLOCK_RECORD
  5
1E
330
1
100
AcDbSymbolTableRecord
100
AcDbBlockTableRecord
  2
*Paper_Space
 70
    0
280
    1
281
    0
  0
ENDTAB
  0
ENDSEC
  0
SECTION
  2
BLOCKS
  0
BLOCK
  5
20
330
1F
100
AcDbEntity
  8
0
100
AcDbBlockBegin
  2
*Model_Space
 70
    0
 10
0
 20
0
 30
0
  3
*Model_Space
  1

  0
ENDBLK
  5
21
330
1F
100
AcDbEntity
  8
0
100
AcDbBlockEnd
  0
BLOCK
  5
1C
330
1B
100
AcDbEntity
  8
0
100
AcDbBlockBegin
  2
*Paper_Space
 70
    0
 10
0
 20
0
 30
0
  3
*Paper_Space
  1

  0
ENDBLK
  5
1D
330
1F
100
AcDbEntity
  8
0
100
AcDbBlockEnd
  0
ENDSEC
  0
SECTION
  2
ENTITIES
  0
POLYLINE
  5
3E
100
AcDbEntity
  8
s001-#def-active-grp
  6
CONTINUOUS
 62
    7
420
    0
370
    9
100
AcDb2dPolyline
 10
0
 20
0
 30
0
 70
    0
  0
VERTEX
  5
3F
100
AcDbEntity
  8
s001-#def-active-grp
  6
CONTINUOUS
 62
    7
420
    0
370
    9
100
AcDbVertex
100
AcDb2dVertex
 10
22.91666555051055
 20
11.23665507284765
 30
0
  0
VERTEX
  5
40
100
AcDbEntity
  8
s001-#def-active-grp
  6
CONTINUOUS
 62
    7
420
    0
370
    9
100
AcDbVertex
100
AcDb2dVertex
 10
22.91666555051055
 20
-15.76334492715235
 30
0
  0
VERTEX
  5
41
100
AcDbEntity
  8
s001-#def-active-grp
  6
CONTINUOUS
 62
    7
420
    0
370
    9
100
AcDbVertex
100
AcDb2dVertex
 10
-17.08333444948945
 20
-15.76334492715235
 30
0
  0
VERTEX
  5
42
100
AcDbEntity
  8
s001-#def-active-grp
  6
CONTINUOUS
 62
    7
420
    0
370
    9
100
AcDbVertex
100
AcDb2dVertex
 10
-17.08333444948945
 20
11.23665507284765
 30
0
  0
SEQEND
  5
43
100
AcDbEntity
  8
s001-#def-active-grp
  6
CONTINUOUS
 62
    7
420
    0
370
    9
  0
LINE
  5
44
100
AcDbEntity
  8
s001-#def-active-grp
  6
CONTINUOUS
 62
    7
420
    0
370
    9
100
AcDbLine
 10
-3.583334449489445
 20
4.31165507284765
 11
-3.583334449489445
 21
18.16165507284765
  0
LINE
  5
45
100
AcDbEntity
  8
s001-#def-active-grp
  6
CONTINUOUS
 62
    7
420
    0
370
    9
100
AcDbLine
 10
9.416665550510555
 20
18.16165507284765
 11
9.416665550510555
 21
4.31165507284765
  0
ARC
  5
46
100
AcDbEntity
  8
s001-#def-active-grp
  6
CONTINUOUS
 62
    7
420
    0
370
    9
100
AcDbCircle
 10
2.916665550510555
 20
11.23665507284765
 40
20
100
AcDbArc
 50
-1.017777498068325e-14
 51
90
  0
ARC
  5
47
100
AcDbEntity
  8
s001-#def-active-grp
  6
CONTINUOUS
 62
    7
420
    0
370
    9
100
AcDbCircle
 10
2.916665550510555
 20
11.23665507284765
 40
20
100
AcDbArc
 50
90
 51
180
  0
ARC
  5
48
100
AcDbEntity
  8
s001-#def-active-grp
  6
CONTINUOUS
 62
    7
420
    0
370
    9
100
AcDbCircle
 10
2.916665550510556
 20
4.31165507284765
 40
6.499999999999998
100
AcDbArc
 50
-90.00000000000003
 51
0
  0
ARC
  5
49
100
AcDbEntity
  8
s001-#def-active-grp
  6
CONTINUOUS
 62
    7
420
    0
370
    9
100
AcDbCircle
 10
2.916665550510556
 20
4.31165507284765
 40
6.5
100
AcDbArc
 50
180
 51
-90.00000000000003
  0
ARC
  5
4A
100
AcDbEntity
  8
s001-#def-active-grp
  6
CONTINUOUS
 62
    7
420
    0
370
    9
100
AcDbCircle
 10
2.916665550510555
 20
18.16165507284765
 40
6.5
100
AcDbArc
 50
90
 51
180
  0
ARC
  5
4B
100
AcDbEntity
  8
s001-#def-active-grp
  6
CONTINUOUS
 62
    7
420
    0
370
    9
100
AcDbCircle
 10
2.916665550510555
 20
18.16165507284765
 40
6.5
100
AcDbArc
 50
0
 51
90
  0
ARC
  5
4C
100
AcDbEntity
  8
s001-#def-active-grp
  6
CONTINUOUS
 62
    7
420
    0
370
    9
100
AcDbCircle
 10
-4.833334449489445
 20
24.66165507284765
 40
1.75
100
AcDbArc
 50
-90
 51
0
  0
ARC
  5
4D
100
AcDbEntity
  8
s001-#def-active-grp
  6
CONTINUOUS
 62
    7
420
    0
370
    9
100
AcDbCircle
 10
-4.833334449489445
 20
24.66165507284765
 40
1.75
100
AcDbArc
 50
180
 51
-90
  0
ARC
  5
4E
100
AcDbEntity
  8
s001-#def-active-grp
  6
CONTINUOUS
 62
    7
420
    0
370
    9
100
AcDbCircle
 10
-4.833334449489442
 20
24.66165507284765
 40
1.750000000000004
100
AcDbArc
 50
90.00000000000011
 51
180
  0
ARC
  5
4F
100
AcDbEntity
  8
s001-#def-active-grp
  6
CONTINUOUS
 62
    7
420
    0
370
    9
100
AcDbCircle
 10
-4.833334449489449
 20
24.66165507284765
 40
1.75
100
AcDbArc
 50
0
 51
89.99999999999989
  0
ARC
  5
50
100
AcDbEntity
  8
s001-#def-active-grp
  6
CONTINUOUS
 62
    7
420
    0
370
    9
100
AcDbCircle
 10
10.66666555051055
 20
24.66165507284765
 40
1.75
100
AcDbArc
 50
-90
 51
0
  0
ARC
  5
51
100
AcDbEntity
  8
s001-#def-active-grp
  6
CONTINUOUS
 62
    7
420
    0
370
    9
100
AcDbCircle
 10
10.66666555051055
 20
24.66165507284765
 40
1.75
100
AcDbArc
 50
180
 51
-90
  0
ARC
  5
52
100
AcDbEntity
  8
s001-#def-active-grp
  6
CONTINUOUS
 62
    7
420
    0
370
    9
100
AcDbCircle
 10
10.66666555051056
 20
24.66165507284765
 40
1.750000000000004
100
AcDbArc
 50
90.00000000000011
 51
180
  0
ARC
  5
53
100
AcDbEntity
  8
s001-#def-active-grp
  6
CONTINUOUS
 62
    7
420
    0
370
    9
100
AcDbCircle
 10
10.66666555051055
 20
24.66165507284765
 40
1.75
100
AcDbArc
 50
0
 51
89.99999999999989
  0
ARC
  5
54
100
AcDbEntity
  8
s001-#def-active-grp
  6
CONTINUOUS
 62
    7
420
    0
370
    9
100
AcDbCircle
 10
-4.833334449489445
 20
-2.18834492715235
 40
1.75
100
AcDbArc
 50
-90
 51
-1.453967854383322e-14
  0
ARC
  5
55
100
AcDbEntity
  8
s001-#def-active-grp
  6
CONTINUOUS
 62
    7
420
    0
370
    9
100
AcDbCircle
 10
-4.833334449489445
 20
-2.188344927152349
 40
1.750000000000001
100
AcDbArc
 50
-180
 51
-90
  0
ARC
  5
56
100
AcDbEntity
  8
s001-#def-active-grp
  6
CONTINUOUS
 62
    7
420
    0
370
    9
100
AcDbCircle
 10
-4.833334449489445
 20
-2.188344927152351
 40
1.75
100
AcDbArc
 50
90
 51
180
  0
ARC
  5
57
100
AcDbEntity
  8
s001-#def-active-grp
  6
CONTINUOUS
 62
    7
420
    0
370
    9
100
AcDbCircle
 10
-4.833334449489445
 20
-2.18834492715235
 40
1.75
100
AcDbArc
 50
0
 51
90
  0
ARC
  5
58
100
AcDbEntity
  8
s001-#def-active-grp
  6
CONTINUOUS
 62
    7
420
    0
370
    9
100
AcDbCircle
 10
10.66666555051055
 20
-2.18834492715235
 40
1.75
100
AcDbArc
 50
-90
 51
0
  0
ARC
  5
59
100
AcDbEntity
  8
s001-#def-active-grp
  6
CONTINUOUS
 62
    7
420
    0
370
    9
100
AcDbCircle
 10
10.66666555051055
 20
-2.18834492715235
 40
1.75
100
AcDbArc
 50
180
 51
-90
  0
ARC
  5
5A
100
AcDbEntity
  8
s001-#def-active-grp
  6
CONTINUOUS
 62
    7
420
    0
370
    9
100
AcDbCircle
 10
10.66666555051055
 20
-2.18834492715235
 40
1.75
100
AcDbArc
 50
90
 51
180
  0
ARC
  5
5B
100
AcDbEntity
  8
s001-#def-active-grp
  6
CONTINUOUS
 62
    7
420
    0
370
    9
100
AcDbCircle
 10
10.66666555051055
 20
-2.18834492715235
 40
1.75
100
AcDbArc
 50
0
 51
90
  0
ARC
  5
5C
100
AcDbEntity
  8
s001-#def-active-grp
  6
CONTINUOUS
 62
    7
420
    0
370
    9
100
AcDbCircle
 10
-12.58333444948945
 20
11.23665507284765
 40
1.75
100
AcDbArc
 50
-90
 51
0
  0
ARC
  5
5D
100
AcDbEntity
  8
s001-#def-active-grp
  6
CONTINUOUS
 62
    7
420
    0
370
    9
100
AcDbCircle
 10
-12.58333444948945
 20
11.23665507284765
 40
1.75
100
AcDbArc
 50
180
 51
-90
  0
ARC
  5
5E
100
AcDbEntity
  8
s001-#def-active-grp
  6
CONTINUOUS
 62
    7
420
    0
370
    9
100
AcDbCircle
 10
-12.58333444948945
 20
11.23665507284765
 40
1.749999999999998
100
AcDbArc
 50
89.99999999999994
 51
180
  0
ARC
  5
5F
100
AcDbEntity
  8
s001-#def-active-grp
  6
CONTINUOUS
 62
    7
420
    0
370
    9
100
AcDbCircle
 10
-12.58333444948944
 20
11.23665507284765
 40
1.75
100
AcDbArc
 50
0
 51
90.00000000000006
  0
ARC
  5
60
100
AcDbEntity
  8
s001-#def-active-grp
  6
CONTINUOUS
 62
    7
420
    0
370
    9
100
AcDbCircle
 10
18.41666555051055
 20
11.23665507284765
 40
1.75
100
AcDbArc
 50
-90
 51
0
  0
ARC
  5
61
100
AcDbEntity
  8
s001-#def-active-grp
  6
CONTINUOUS
 62
    7
420
    0
370
    9
100
AcDbCircle
 10
18.41666555051055
 20
11.23665507284765
 40
1.75
100
AcDbArc
 50
180
 51
-90
  0
ARC
  5
62
100
AcDbEntity
  8
s001-#def-active-grp
  6
CONTINUOUS
 62
    7
420
    0
370
    9
100
AcDbCircle
 10
18.41666555051055
 20
11.23665507284765
 40
1.749999999999996
100
AcDbArc
 50
89.99999999999989
 51
180
  0
ARC
  5
63
100
AcDbEntity
  8
s001-#def-active-grp
  6
CONTINUOUS
 62
    7
420
    0
370
    9
100
AcDbCircle
 10
18.41666555051056
 20
11.23665507284765
 40
1.75
100
AcDbArc
 50
0
 51
90.00000000000011
  0
DIMENSION
  5
64
100
AcDbEntity
  8
dimensions
  6
CONTINUOUS
 62
    6
420
16718335
370
    5
100
AcDbDimension
 10
7.873154320478402
 20
-10.2495872686207
 30
0
 11
7.873154320478402
 21
-10.2495872686207
 31
0
 70
   33
  1
40.00
 71
    5
  3
STANDARD
 53
0
210
0
220
0
230
1
 42
40
100
AcDbAlignedDimension
 13
-17.08333444948945
 23
-15.76334492715235
 33
0
 14
22.91666555051055
 24
-15.76334492715235
 34
0
  0
DIMENSION
  5
65
100
AcDbEntity
  8
dimensions
  6
CONTINUOUS
 62
    6
420
16718335
370
    5
100
AcDbDimension
 10
29.86110939487106
 20
-2.26334492715235
 30
0
 11
29.86110939487106
 21
-2.26334492715235
 31
0
 70
   33
  1
27.00
 71
    5
  3
STANDARD
 53
0
210
0
220
0
230
1
 42
27
100
AcDbAlignedDimension
 13
22.91666555051055
 23
-15.76334492715235
 33
0
 14
22.91666555051055
 24
11.23665507284765
 34
0
  0
DIMENSION
  5
66
100
AcDbEntity
  8
dimensions
  6
CONTINUOUS
 62
    6
420
16718335
370
    5
100
AcDbDimension
 10
-29.86110939487106
 20
7.73665507284765
 30
0
 11
-29.86110939487106
 21
7.73665507284765
 31
0
 70
   32
  1
47.00 REF
 71
    5
  3
STANDARD
 53
0
210
0
220
0
230
1
 42
-47
100
AcDbAlignedDimension
 13
2.916665550510555
 23
31.23665507284765
 33
0
 14
-17.08333444948945
 24
-15.76334492715235
 34
0
 50
90
100
AcDbRotatedDimension
  0
DIMENSION
  5
67
100
AcDbEntity
  8
dimensions
  6
CONTINUOUS
 62
    6
420
16718335
370
    5
100
AcDbDimension
 10
-0.006859097727748065
 20
-19.09131868031163
 30
0
 11
-0.006859097727748065
 21
-19.09131868031163
 31
0
 70
   33
  1
13.00
 71
    5
  3
STANDARD
 53
0
210
0
220
0
230
1
 42
13
100
AcDbAlignedDimension
 13
-3.583334449489445
 23
18.16165507284765
 33
0
 14
9.416665550510555
 24
18.16165507284765
 34
0
  0
DIMENSION
  5
68
100
AcDbEntity
  8
dimensions
  6
CONTINUOUS
 62
    6
420
16718335
370
    5
100
AcDbDimension
 10
-6.209076326593348
 20
25.74324385218231
 30
0
 11
-10.63796623017998
 21
29.22517436861891
 31
0
 70
   35
  1
⌀3.50
 71
    5
  3
STANDARD
 53
0
210
0
220
0
230
1
 42
3.5
100
AcDbDiametricDimension
 15
-3.457592572385543
 25
23.58006629351299
 35
0
 40
0
  0
DIMENSION
  5
69
100
AcDbEntity
  8
dimensions
  6
CONTINUOUS
 62
    6
420
16718335
370
    5
100
AcDbDimension
 10
10.84641115228746
 20
22.92091054287151
 30
0
 11
11.11203241796436
 21
20.34850398214625
 31
0
 70
   35
  1
⌀3.50
 71
    5
  3
STANDARD
 53
0
210
0
220
0
230
1
 42
3.5
100
AcDbDiametricDimension
 15
10.48691994873365
 25
26.40239960282379
 35
0
 40
0
  0
DIMENSION
  5
6A
100
AcDbEntity
  8
dimensions
  6
CONTINUOUS
 62
    6
420
16718335
370
    5
100
AcDbDimension
 10
-6.240332631642424
 20
-3.22894865356227
 30
0
 11
-10.86944768165727
 21
-6.652602238995218
 31
0
 70
   35
  1
⌀3.50
 71
    5
  3
STANDARD
 53
0
210
0
220
0
230
1
 42
3.5
100
AcDbDiametricDimension
 15
-3.426336267336467
 25
-1.147741200742431
 35
0
 40
0
  0
DIMENSION
  5
6B
100
AcDbEntity
  8
dimensions
  6
CONTINUOUS
 62
    6
420
16718335
370
    5
100
AcDbDimension
 10
12.10557919532195
 20
-3.184350711661455
 30
0
 11
15.89919830349787
 21
-5.810266859994842
 31
0
 70
   35
  1
⌀3.50
 71
    5
  3
STANDARD
 53
0
210
0
220
0
230
1
 42
3.5
100
AcDbDiametricDimension
 15
9.227751905699161
 25
-1.192339142643245
 35
0
 40
0
  0
DIMENSION
  5
6C
100
AcDbEntity
  8
dimensions
  6
CONTINUOUS
 62
    6
420
16718335
370
    5
100
AcDbDimension
 10
-11.1236645354915
 20
12.20198597060718
 30
0
 11
-6.20304097896733
 21
15.45616687123705
 31
0
 70
   35
  1
⌀3.50
 71
    5
  3
STANDARD
 53
0
210
0
220
0
230
1
 42
3.5
100
AcDbDiametricDimension
 15
-14.04300436348739
 25
10.27132417508812
 35
0
 40
0
  0
DIMENSION
  5
6D
100
AcDbEntity
  8
dimensions
  6
CONTINUOUS
 62
    6
420
16718335
370
    5
100
AcDbDimension
 10
17.30528927577784
 20
9.884862642050212
 30
0
 11
14.71465740830218
 21
6.73381773578885
 31
0
 70
   35
  1
⌀3.50
 71
    5
  3
STANDARD
 53
0
210
0
220
0
230
1
 42
3.5
100
AcDbDiametricDimension
 15
19.52804182524327
 25
12.58844750364509
 35
0
 40
0
  0
DIMENSION
  5
6E
100
AcDbEntity
  8
dimensions
  6
CONTINUOUS
 62
    6
420
16718335
370
    5
100
AcDbDimension
 10
-0.4907197800030474
 20
-26.18203951001703
 30
0
 11
-0.4907197800030474
 21
-26.18203951001703
 31
0
 70
   33
  1
15.50
 71
    5
  3
STANDARD
 53
0
210
0
220
0
230
1
 42
15.5
100
AcDbAlignedDimension
 13
-4.833334449489445
 23
-2.18834492715235
 33
0
 14
10.66666555051055
 24
-2.18834492715235
 34
0
  0
DIMENSION
  5
6F
100
AcDbEntity
  8
dimensions
  6
CONTINUOUS
 62
    6
420
16718335
370
    5
100
AcDbDimension
 10
3.583332188373191
 20
-31.0966764314298
 30
0
 11
3.583332188373191
 21
-31.0966764314298
 31
0
 70
   33
  1
31.00
 71
    5
  3
STANDARD
 53
0
210
0
220
0
230
1
 42
31
100
AcDbAlignedDimension
 13
-12.58333444948945
 23
11.23665507284765
 33
0
 14
18.41666555051055
 24
11.23665507284765
 34
0
  0
DIMENSION
  5
70
100
AcDbEntity
  8
dimensions
  6
CONTINUOUS
 62
    6
420
16718335
370
    5
100
AcDbDimension
 10
-20.78767871682813
 20
12.44871763821692
 30
0
 11
-20.78767871682813
 21
12.44871763821692
 31
0
 70
   33
  1
26.85
 71
    5
  3
STANDARD
 53
0
210
0
220
0
230
1
 42
26.85
100
AcDbAlignedDimension
 13
2.916665550510555
 23
24.66165507284765
 33
0
 14
2.916665550510555
 24
-2.18834492715235
 34
0
  0
DIMENSION
  5
71
100
AcDbEntity
  8
dimensions
  6
CONTINUOUS
 62
    6
420
16718335
370
    5
100
AcDbDimension
 10
-0.9583344494894455
 20
-5.537323825779273
 30
0
 11
-0.9583344494894455
 21
-5.537323825779273
 31
0
 70
   33
  1
7.75
 71
    5
  3
STANDARD
 53
0
210
0
220
0
230
1
 42
7.75
100
AcDbAlignedDimension
 13
-4.833334449489445
 23
-2.18834492715235
 33
0
 14
2.916665550510555
 24
-2.18834492715235
 34
0
  0
DIMENSION
  5
72
100
AcDbEntity
  8
dimensions
  6
CONTINUOUS
 62
    6
420
16718335
370
    5
100
AcDbDimension
 10
-7.715123433336585
 20
-31.23665507284765
 30
0
 11
-7.715123433336585
 21
-31.23665507284765
 31
0
 70
   33
  1
15.50
 71
    5
  3
STANDARD
 53
0
210
0
220
0
230
1
 42
15.5
100
AcDbAlignedDimension
 13
-12.58333444948945
 23
11.23665507284765
 33
0
 14
2.916665550510555
 24
11.23665507284765
 34
0
  0
DIMENSION
  5
73
100
AcDbEntity
  8
dimensions
  6
CONTINUOUS
 62
    6
420
16718335
370
    5
100
AcDbDimension
 10
6.935440402498227
 20
14.69915507284765
 30
0
 11
6.935440402498227
 21
14.69915507284765
 31
0
 70
   33
  1
6.92
 71
    5
  3
STANDARD
 53
0
210
0
220
0
230
1
 42
6.925
100
AcDbAlignedDimension
 13
2.916665550510555
 23
11.23665507284765
 33
0
 14
2.916665550510555
 24
18.16165507284765
 34
0
  0
ENDSEC
  0
SECTION
  2
OBJECTS
  0
DICTIONARY
  5
C
330
0
100
AcDbDictionary
281
    1
  3
ACAD_GROUP
350
D
  0
DICTIONARY
  5
D
330
C
100
AcDbDictionary
281
    1
  0
ENDSEC
  0
EOF
